# xmcd
#
# Track frame offsets: 
#        150
#        12920
#        27452
#        43257
#        56927
#        70700
#        87452
#        102255
#        116305
#        135437
#
# Disc length: 2001 seconds
#
# Revision: 1
# Processed by: cddbd v1.5.2PL0 Copyright (c) Steve Scherf et al.
# Submitted via: ExactAudioCopy v0.99pb5
#
DISCID=8507cf0a
DTITLE=Various Artist - Academy Award Songs 1974-1983
DYEAR=1993
DGENRE=Soundtrack
TTITLE0=We May Never Love Like This Again - The Towering Inferno (1974
TTITLE0=)
TTITLE1=I'm Easy - Nashville (1975)
TTITLE2=Evergreen - A Star is Born (1976)
TTITLE3=You Light Up My Life (1977)
TTITLE4=Last Dance - Thank God it's Friday (1978)
TTITLE5=It Goes Like It Goes - Norma Rae (1979)
TTITLE6=Fame (1980)
TTITLE7=Arthur's Theme - Arthur (1981)
TTITLE8=Up Where We Belong - An Officer and a Gentleman (1982)
TTITLE9=Flashdance - What A Feeling - Flashdance (1983)
EXTD=
EXTT0=
EXTT1=
EXTT2=
EXTT3=
EXTT4=
EXTT5=
EXTT6=
EXTT7=
EXTT8=
EXTT9=
PLAYORDER=
